<svg width="16" height="16" viewBox="0 0 16 16" fill="none" xmlns="http://www.w3.org/2000/svg">
<path d="M7.99998 14.6668C7.07776 14.6668 6.21109 14.4918 5.39998 14.1418C4.58887 13.7918 3.88331 13.3168 3.28331 12.7168C2.68331 12.1168 2.20831 11.4113 1.85831 10.6002C1.50831 9.78905 1.33331 8.92239 1.33331 8.00016C1.33331 7.07794 1.50831 6.21127 1.85831 5.40016C2.20831 4.58905 2.68331 3.8835 3.28331 3.2835C3.88331 2.6835 4.58887 2.2085 5.39998 1.8585C6.21109 1.5085 7.07776 1.3335 7.99998 1.3335C8.9222 1.3335 9.78887 1.5085 10.6 1.8585C11.4111 2.2085 12.1166 2.6835 12.7166 3.2835C13.3166 3.8835 13.7916 4.58905 14.1416 5.40016C14.4916 6.21127 14.6666 7.07794 14.6666 8.00016C14.6666 8.92239 14.4916 9.78905 14.1416 10.6002C13.7916 11.4113 13.3166 12.1168 12.7166 12.7168C12.1166 13.3168 11.4111 13.7918 10.6 14.1418C9.78887 14.4918 8.9222 14.6668 7.99998 14.6668ZM7.99998 13.3335C9.48887 13.3335 10.75 12.8168 11.7833 11.7835C12.8166 10.7502 13.3333 9.48905 13.3333 8.00016C13.3333 7.92239 13.3305 7.84183 13.325 7.7585C13.3194 7.67516 13.3166 7.60572 13.3166 7.55016C13.2611 7.87239 13.1111 8.13905 12.8666 8.35016C12.6222 8.56127 12.3333 8.66683 12 8.66683H10.6666C10.3 8.66683 9.98609 8.53627 9.72498 8.27516C9.46387 8.01405 9.33331 7.70016 9.33331 7.3335V6.66683H6.66665V5.3335C6.66665 4.96683 6.7972 4.65294 7.05831 4.39183C7.31942 4.13072 7.63331 4.00016 7.99998 4.00016H8.66665C8.66665 3.74461 8.73609 3.51961 8.87498 3.32516C9.01387 3.13072 9.18331 2.97239 9.38331 2.85016C9.16109 2.79461 8.93609 2.75016 8.70831 2.71683C8.48054 2.6835 8.24442 2.66683 7.99998 2.66683C6.51109 2.66683 5.24998 3.1835 4.21665 4.21683C3.18331 5.25016 2.66665 6.51127 2.66665 8.00016H5.99998C6.73331 8.00016 7.36109 8.26127 7.88331 8.7835C8.40554 9.30572 8.66665 9.9335 8.66665 10.6668V11.3335H6.66665V13.1668C6.88887 13.2224 7.10831 13.2641 7.32498 13.2918C7.54165 13.3196 7.76665 13.3335 7.99998 13.3335Z" fill="#B1B3C8"/>
</svg>
