<svg width="16" height="16" viewBox="0 0 16 16" fill="none" xmlns="http://www.w3.org/2000/svg">
<path d="M0.666656 13.3332V11.4665C0.666656 11.0887 0.763879 10.7415 0.958323 10.4248C1.15277 10.1082 1.4111 9.8665 1.73332 9.69984C2.42221 9.35539 3.12221 9.09706 3.83332 8.92484C4.54443 8.75261 5.26666 8.6665 5.99999 8.6665C6.73332 8.6665 7.45554 8.75261 8.16666 8.92484C8.87777 9.09706 9.57777 9.35539 10.2667 9.69984C10.5889 9.8665 10.8472 10.1082 11.0417 10.4248C11.2361 10.7415 11.3333 11.0887 11.3333 11.4665V13.3332H0.666656ZM12.6667 13.3332V11.3332C12.6667 10.8443 12.5305 10.3748 12.2583 9.92484C11.9861 9.47484 11.6 9.08873 11.1 8.7665C11.6667 8.83317 12.2 8.94706 12.7 9.10817C13.2 9.26928 13.6667 9.4665 14.1 9.69984C14.5 9.92206 14.8055 10.1693 15.0167 10.4415C15.2278 10.7137 15.3333 11.0109 15.3333 11.3332V13.3332H12.6667ZM5.99999 7.99984C5.26666 7.99984 4.63888 7.73873 4.11666 7.2165C3.59443 6.69428 3.33332 6.0665 3.33332 5.33317C3.33332 4.59984 3.59443 3.97206 4.11666 3.44984C4.63888 2.92762 5.26666 2.6665 5.99999 2.6665C6.73332 2.6665 7.3611 2.92762 7.88332 3.44984C8.40554 3.97206 8.66666 4.59984 8.66666 5.33317C8.66666 6.0665 8.40554 6.69428 7.88332 7.2165C7.3611 7.73873 6.73332 7.99984 5.99999 7.99984ZM12.6667 5.33317C12.6667 6.0665 12.4055 6.69428 11.8833 7.2165C11.3611 7.73873 10.7333 7.99984 9.99999 7.99984C9.87777 7.99984 9.72221 7.98595 9.53332 7.95817C9.34443 7.93039 9.18888 7.89984 9.06666 7.8665C9.36666 7.51095 9.59721 7.1165 9.75832 6.68317C9.91943 6.24984 9.99999 5.79984 9.99999 5.33317C9.99999 4.8665 9.91943 4.4165 9.75832 3.98317C9.59721 3.54984 9.36666 3.15539 9.06666 2.79984C9.22221 2.74428 9.37777 2.70817 9.53332 2.6915C9.68888 2.67484 9.84443 2.6665 9.99999 2.6665C10.7333 2.6665 11.3611 2.92762 11.8833 3.44984C12.4055 3.97206 12.6667 4.59984 12.6667 5.33317ZM1.99999 11.9998H9.99999V11.4665C9.99999 11.3443 9.96943 11.2332 9.90832 11.1332C9.84721 11.0332 9.76666 10.9554 9.66666 10.8998C9.06666 10.5998 8.4611 10.3748 7.84999 10.2248C7.23888 10.0748 6.62221 9.99984 5.99999 9.99984C5.37777 9.99984 4.7611 10.0748 4.14999 10.2248C3.53888 10.3748 2.93332 10.5998 2.33332 10.8998C2.23332 10.9554 2.15277 11.0332 2.09166 11.1332C2.03055 11.2332 1.99999 11.3443 1.99999 11.4665V11.9998ZM5.99999 6.6665C6.36666 6.6665 6.68055 6.53595 6.94166 6.27484C7.20277 6.01373 7.33332 5.69984 7.33332 5.33317C7.33332 4.9665 7.20277 4.65261 6.94166 4.3915C6.68055 4.13039 6.36666 3.99984 5.99999 3.99984C5.63332 3.99984 5.31943 4.13039 5.05832 4.3915C4.79721 4.65261 4.66666 4.9665 4.66666 5.33317C4.66666 5.69984 4.79721 6.01373 5.05832 6.27484C5.31943 6.53595 5.63332 6.6665 5.99999 6.6665Z" fill="#B1B3C8"/>
</svg>
