<svg width="16" height="16" viewBox="0 0 16 16" fill="none" xmlns="http://www.w3.org/2000/svg">
<path d="M8.38334 14.2668C8.11668 14.5335 7.80001 14.6668 7.43334 14.6668C7.06668 14.6668 6.75001 14.5335 6.48334 14.2668L1.71668 9.50016C1.46112 9.24461 1.33334 8.93072 1.33334 8.5585C1.33334 8.18627 1.46112 7.87239 1.71668 7.61683L7.58334 1.7335C7.70557 1.61127 7.85001 1.51405 8.01668 1.44183C8.18334 1.36961 8.36112 1.3335 8.55001 1.3335H13.3167C13.6833 1.3335 13.9972 1.46405 14.2583 1.72516C14.5195 1.98627 14.65 2.30016 14.65 2.66683V7.4335C14.65 7.62239 14.6139 7.80016 14.5417 7.96683C14.4695 8.1335 14.3722 8.27794 14.25 8.40016L8.38334 14.2668ZM11.65 5.3335C11.9278 5.3335 12.1639 5.23627 12.3583 5.04183C12.5528 4.84739 12.65 4.61127 12.65 4.3335C12.65 4.05572 12.5528 3.81961 12.3583 3.62516C12.1639 3.43072 11.9278 3.3335 11.65 3.3335C11.3722 3.3335 11.1361 3.43072 10.9417 3.62516C10.7472 3.81961 10.65 4.05572 10.65 4.3335C10.65 4.61127 10.7472 4.84739 10.9417 5.04183C11.1361 5.23627 11.3722 5.3335 11.65 5.3335ZM7.43334 13.3335L13.3167 7.4335V2.66683H8.55001L2.66668 8.56683L7.43334 13.3335Z" fill="#B1B3C8"/>
</svg>
